<?xml version="1.0" encoding="UTF-8"?>
<svg xmlns="http://www.w3.org/2000/svg" xmlns:xlink="http://www.w3.org/1999/xlink" width="23" height="6" viewBox="0 0 23 6" version="1.1">
<g id="surface1">
<path style=" stroke:none;fill-rule:nonzero;fill:rgb(0%,0%,0%);fill-opacity:1;" d="M 5.773438 5.90625 L 5.132812 5.90625 L 5.132812 3.515625 C 5.132812 2.636719 4.824219 2.199219 4.207031 2.199219 C 4.066406 2.199219 3.933594 2.226562 3.8125 2.289062 C 3.695312 2.347656 3.589844 2.429688 3.503906 2.535156 C 3.414062 2.636719 3.34375 2.753906 3.296875 2.886719 C 3.25 3.019531 3.222656 3.15625 3.222656 3.300781 L 3.222656 5.90625 L 2.582031 5.90625 L 2.582031 3.363281 C 2.582031 3.015625 2.507812 2.738281 2.359375 2.519531 C 2.210938 2.304688 1.992188 2.199219 1.703125 2.199219 C 1.554688 2.199219 1.417969 2.230469 1.292969 2.296875 C 1.167969 2.363281 1.058594 2.453125 0.964844 2.5625 C 0.875 2.675781 0.804688 2.804688 0.753906 2.945312 C 0.703125 3.085938 0.675781 3.226562 0.675781 3.371094 L 0.675781 5.90625 L 0.0351562 5.90625 L 0.0351562 2.828125 C 0.0351562 2.660156 0.03125 2.488281 0.0273438 2.304688 C 0.0195312 2.125 0.0117188 1.9375 0 1.742188 L 0.574219 1.742188 L 0.574219 2.421875 L 0.632812 2.421875 C 0.921875 1.910156 1.351562 1.65625 1.914062 1.65625 C 2.191406 1.65625 2.425781 1.730469 2.628906 1.878906 C 2.832031 2.027344 2.976562 2.234375 3.0625 2.492188 L 3.078125 2.492188 C 3.226562 2.214844 3.417969 2.007812 3.648438 1.867188 C 3.878906 1.726562 4.140625 1.65625 4.4375 1.65625 C 4.84375 1.65625 5.167969 1.8125 5.410156 2.125 C 5.652344 2.4375 5.773438 2.875 5.773438 3.429688 Z M 9.109375 5.90625 L 9.050781 5.371094 L 9.023438 5.371094 C 8.746094 5.789062 8.328125 6 7.773438 6 C 7.597656 6 7.4375 5.96875 7.289062 5.914062 C 7.140625 5.855469 7.011719 5.773438 6.902344 5.667969 C 6.792969 5.5625 6.707031 5.4375 6.644531 5.292969 C 6.582031 5.148438 6.550781 4.992188 6.550781 4.816406 C 6.550781 4.3125 6.761719 3.929688 7.175781 3.667969 C 7.59375 3.40625 8.195312 3.273438 8.988281 3.273438 L 8.988281 3.179688 C 8.988281 2.496094 8.671875 2.15625 8.039062 2.15625 C 7.648438 2.15625 7.300781 2.253906 6.996094 2.457031 L 6.84375 2.007812 C 7.207031 1.773438 7.636719 1.65625 8.132812 1.65625 C 9.136719 1.65625 9.640625 2.210938 9.640625 3.320312 L 9.640625 4.914062 C 9.640625 5.113281 9.644531 5.296875 9.652344 5.460938 C 9.660156 5.625 9.675781 5.773438 9.699219 5.90625 Z M 9 3.75 L 8.871094 3.75 C 7.765625 3.75 7.210938 4.078125 7.210938 4.730469 C 7.210938 4.992188 7.277344 5.183594 7.414062 5.308594 C 7.550781 5.4375 7.722656 5.5 7.929688 5.5 C 8.058594 5.5 8.191406 5.476562 8.316406 5.429688 C 8.445312 5.382812 8.5625 5.320312 8.660156 5.238281 C 8.761719 5.152344 8.839844 5.050781 8.902344 4.929688 C 8.964844 4.808594 9 4.675781 9 4.527344 Z M 13.453125 2.394531 C 13.203125 2.257812 12.914062 2.1875 12.582031 2.1875 C 12.347656 2.1875 12.140625 2.230469 11.957031 2.3125 C 11.773438 2.398438 11.621094 2.511719 11.496094 2.660156 C 11.371094 2.804688 11.273438 2.980469 11.203125 3.179688 C 11.136719 3.382812 11.101562 3.601562 11.101562 3.835938 C 11.101562 4.078125 11.136719 4.296875 11.210938 4.5 C 11.28125 4.699219 11.378906 4.871094 11.507812 5.011719 C 11.636719 5.152344 11.789062 5.261719 11.964844 5.339844 C 12.144531 5.417969 12.339844 5.457031 12.554688 5.457031 C 12.863281 5.457031 13.167969 5.386719 13.472656 5.25 L 13.601562 5.75 C 13.28125 5.910156 12.894531 5.988281 12.4375 5.988281 C 12.132812 5.988281 11.859375 5.941406 11.617188 5.839844 C 11.371094 5.738281 11.160156 5.59375 10.984375 5.410156 C 10.804688 5.222656 10.671875 5 10.578125 4.742188 C 10.480469 4.480469 10.433594 4.191406 10.433594 3.871094 C 10.433594 3.542969 10.488281 3.242188 10.59375 2.972656 C 10.699219 2.703125 10.847656 2.46875 11.035156 2.273438 C 11.222656 2.078125 11.449219 1.925781 11.714844 1.816406 C 11.980469 1.710938 12.269531 1.652344 12.589844 1.652344 C 13.007812 1.652344 13.347656 1.730469 13.617188 1.878906 Z M 19.117188 2.9375 C 19.117188 3.394531 19.054688 3.808594 18.933594 4.179688 C 18.808594 4.554688 18.636719 4.875 18.410156 5.144531 C 18.1875 5.417969 17.914062 5.625 17.597656 5.773438 C 17.28125 5.925781 16.929688 6 16.542969 6 C 16.171875 6 15.832031 5.925781 15.523438 5.78125 C 15.214844 5.632812 14.953125 5.429688 14.730469 5.167969 C 14.507812 4.90625 14.335938 4.59375 14.210938 4.238281 C 14.089844 3.878906 14.027344 3.480469 14.027344 3.050781 C 14.027344 2.601562 14.089844 2.191406 14.21875 1.8125 C 14.347656 1.4375 14.527344 1.117188 14.753906 0.847656 C 14.984375 0.582031 15.253906 0.375 15.570312 0.222656 C 15.886719 0.0742188 16.234375 0 16.609375 0 C 16.988281 0 17.332031 0.0703125 17.640625 0.214844 C 17.953125 0.359375 18.214844 0.558594 18.433594 0.820312 C 18.648438 1.078125 18.816406 1.386719 18.9375 1.75 C 19.058594 2.113281 19.117188 2.507812 19.117188 2.9375 Z M 18.421875 2.972656 C 18.421875 2.628906 18.378906 2.308594 18.285156 2.011719 C 18.195312 1.71875 18.070312 1.457031 17.90625 1.238281 C 17.742188 1.015625 17.550781 0.84375 17.324219 0.71875 C 17.101562 0.597656 16.851562 0.535156 16.578125 0.535156 C 16.296875 0.535156 16.042969 0.597656 15.8125 0.71875 C 15.578125 0.84375 15.382812 1.015625 15.21875 1.238281 C 15.058594 1.457031 14.929688 1.722656 14.839844 2.03125 C 14.75 2.335938 14.703125 2.671875 14.703125 3.035156 C 14.703125 3.375 14.75 3.691406 14.839844 3.988281 C 14.929688 4.28125 15.058594 4.539062 15.21875 4.757812 C 15.382812 4.976562 15.578125 5.148438 15.804688 5.277344 C 16.035156 5.402344 16.285156 5.464844 16.558594 5.464844 C 16.839844 5.464844 17.09375 5.402344 17.324219 5.277344 C 17.554688 5.148438 17.753906 4.972656 17.914062 4.75 C 18.078125 4.527344 18.203125 4.261719 18.292969 3.960938 C 18.378906 3.660156 18.421875 3.332031 18.421875 2.972656 Z M 23 4.34375 C 23 4.589844 22.953125 4.816406 22.863281 5.019531 C 22.773438 5.226562 22.640625 5.398438 22.472656 5.542969 C 22.304688 5.6875 22.101562 5.796875 21.863281 5.875 C 21.621094 5.953125 21.355469 5.992188 21.058594 5.992188 C 20.464844 5.992188 19.996094 5.867188 19.648438 5.621094 L 19.828125 5.078125 C 20.207031 5.320312 20.632812 5.4375 21.101562 5.4375 C 21.496094 5.4375 21.800781 5.34375 22.015625 5.15625 C 22.234375 4.964844 22.339844 4.710938 22.339844 4.394531 C 22.339844 4.101562 22.257812 3.867188 22.089844 3.683594 C 21.921875 3.503906 21.644531 3.339844 21.253906 3.191406 C 20.269531 2.816406 19.777344 2.269531 19.777344 1.550781 C 19.777344 1.328125 19.820312 1.121094 19.90625 0.929688 C 19.996094 0.742188 20.121094 0.578125 20.28125 0.441406 C 20.441406 0.300781 20.628906 0.195312 20.847656 0.121094 C 21.066406 0.046875 21.304688 0.0078125 21.5625 0.0078125 C 22.058594 0.0078125 22.464844 0.101562 22.777344 0.285156 L 22.582031 0.820312 C 22.300781 0.640625 21.953125 0.550781 21.539062 0.550781 C 21.207031 0.550781 20.9375 0.636719 20.734375 0.800781 C 20.527344 0.96875 20.425781 1.191406 20.425781 1.464844 C 20.425781 1.597656 20.445312 1.714844 20.480469 1.820312 C 20.519531 1.921875 20.578125 2.019531 20.664062 2.113281 C 20.75 2.203125 20.867188 2.292969 21.011719 2.375 C 21.15625 2.457031 21.339844 2.546875 21.5625 2.636719 C 21.820312 2.742188 22.039062 2.851562 22.222656 2.96875 C 22.402344 3.089844 22.554688 3.214844 22.671875 3.355469 C 22.789062 3.492188 22.871094 3.644531 22.921875 3.804688 C 22.972656 3.96875 23 4.148438 23 4.34375 Z M 23 4.34375 "/>
</g>
</svg>
