<?xml version="1.0" encoding="iso-8859-1"?>
<!-- Generator: Adobe Illustrator 19.0.0, SVG Export Plug-In . SVG Version: 6.00 Build 0)  -->
<svg version="1.1" id="Capa_1" xmlns="http://www.w3.org/2000/svg" xmlns:xlink="http://www.w3.org/1999/xlink" x="0px" y="0px"
	 viewBox="0 0 512 512" style="enable-background:new 0 0 512 512;" xml:space="preserve">
<circle style="fill:#1DA2F8;" cx="256" cy="256" r="256"/>
<g>
	<path style="fill:#F2F2F2;" d="M256,37.89c-1.724,0-3.122-1.398-3.122-3.122V20.482c0-1.724,1.398-3.122,3.122-3.122
		s3.122,1.398,3.122,3.122v14.286C259.122,36.492,257.724,37.89,256,37.89z"/>
	<path style="fill:#F2F2F2;" d="M256,494.64c-1.724,0-3.122-1.398-3.122-3.122v-14.286c0-1.724,1.398-3.122,3.122-3.122
		s3.122,1.398,3.122,3.122v14.286C259.122,493.242,257.724,494.64,256,494.64z"/>
	<path style="fill:#F2F2F2;" d="M217.58,41.252c-1.488,0-2.805-1.066-3.072-2.581l-2.481-14.069
		c-0.299-1.698,0.835-3.318,2.532-3.616c1.703-0.296,3.319,0.835,3.617,2.533l2.481,14.069c0.299,1.698-0.835,3.318-2.532,3.616
		C217.941,41.235,217.76,41.252,217.58,41.252z"/>
	<path style="fill:#F2F2F2;" d="M296.894,491.063c-1.488,0-2.805-1.066-3.072-2.581l-2.481-14.069
		c-0.299-1.698,0.835-3.318,2.532-3.616c1.703-0.3,3.319,0.834,3.617,2.533l2.481,14.068c0.299,1.698-0.835,3.318-2.532,3.616
		C297.255,491.047,297.074,491.063,296.894,491.063z"/>
	<path style="fill:#F2F2F2;" d="M180.334,51.232c-1.275,0-2.472-0.788-2.933-2.055l-4.887-13.424
		c-0.588-1.621,0.247-3.412,1.867-4.002c1.615-0.587,3.412,0.245,4,1.866l4.886,13.424c0.59,1.621-0.246,3.412-1.866,4.002
		C181.049,51.171,180.689,51.232,180.334,51.232z"/>
	<path style="fill:#F2F2F2;" d="M336.552,480.437c-1.275,0-2.472-0.788-2.933-2.055l-4.886-13.424
		c-0.59-1.621,0.246-3.412,1.866-4.002c1.615-0.589,3.412,0.245,4,1.866l4.887,13.424c0.588,1.621-0.247,3.412-1.867,4.002
		C337.267,480.376,336.907,480.437,336.552,480.437z"/>
	<path style="fill:#F2F2F2;" d="M145.387,67.53c-1.079,0-2.128-0.56-2.707-1.562l-7.143-12.372
		c-0.861-1.493-0.351-3.402,1.143-4.264c1.491-0.866,3.402-0.351,4.265,1.142l7.143,12.372c0.861,1.493,0.351,3.402-1.143,4.264
		C146.455,67.395,145.917,67.53,145.387,67.53z"/>
	<path style="fill:#F2F2F2;" d="M373.762,463.087c-1.079,0-2.128-0.56-2.707-1.562l-7.143-12.372
		c-0.861-1.493-0.351-3.402,1.143-4.264c1.491-0.866,3.401-0.351,4.265,1.142l7.143,12.372c0.861,1.493,0.351,3.402-1.143,4.264
		C374.83,462.952,374.292,463.087,373.762,463.087z"/>
	<path style="fill:#F2F2F2;" d="M113.796,89.648c-0.89,0-1.776-0.379-2.393-1.115L102.22,77.59c-1.109-1.321-0.936-3.29,0.386-4.399
		c1.319-1.107,3.289-0.936,4.398,0.385l9.183,10.943c1.109,1.321,0.936,3.29-0.386,4.399
		C115.217,89.409,114.505,89.648,113.796,89.648z"/>
	<path style="fill:#F2F2F2;" d="M407.389,439.539c-0.89,0-1.776-0.379-2.393-1.115l-9.182-10.943
		c-1.109-1.321-0.936-3.29,0.386-4.399c1.319-1.105,3.289-0.936,4.398,0.385l9.181,10.943c1.109,1.321,0.936,3.29-0.386,4.399
		C408.81,439.3,408.097,439.539,407.389,439.539z"/>
	<path style="fill:#F2F2F2;" d="M86.525,116.917c-0.708,0-1.421-0.239-2.004-0.73l-10.943-9.183
		c-1.322-1.109-1.494-3.077-0.386-4.399c1.109-1.322,3.079-1.492,4.398-0.385l10.943,9.183c1.322,1.109,1.494,3.077,0.386,4.399
		C88.301,116.537,87.415,116.917,86.525,116.917z"/>
	<path style="fill:#F2F2F2;" d="M436.415,410.51c-0.708,0-1.421-0.239-2.006-0.73l-10.942-9.183
		c-1.32-1.109-1.492-3.077-0.385-4.399c1.109-1.322,3.077-1.492,4.399-0.385l10.942,9.183c1.32,1.109,1.492,3.077,0.385,4.399
		C438.19,410.131,437.305,410.51,436.415,410.51z"/>
	<path style="fill:#F2F2F2;" d="M64.404,148.506c-0.529,0-1.066-0.135-1.558-0.419l-12.372-7.143
		c-1.494-0.862-2.004-2.771-1.143-4.264c0.863-1.492,2.767-2.007,4.265-1.142l12.372,7.143c1.494,0.862,2.004,2.771,1.143,4.264
		C66.533,147.946,65.484,148.506,64.404,148.506z"/>
	<path style="fill:#F2F2F2;" d="M459.961,376.881c-0.529,0-1.067-0.135-1.558-0.419l-12.371-7.143
		c-1.494-0.862-2.004-2.771-1.143-4.264s2.771-2.009,4.265-1.142l12.371,7.143c1.494,0.862,2.004,2.771,1.143,4.264
		C462.088,376.321,461.04,376.881,459.961,376.881z"/>
	<path style="fill:#F2F2F2;" d="M48.11,183.457c-0.355,0-0.715-0.061-1.067-0.189l-13.425-4.886
		c-1.621-0.59-2.456-2.381-1.866-4.002c0.588-1.621,2.384-2.453,4-1.866l13.425,4.886c1.621,0.59,2.456,2.381,1.866,4.002
		C50.582,182.669,49.385,183.457,48.11,183.457z"/>
	<path style="fill:#F2F2F2;" d="M477.315,339.674c-0.355,0-0.715-0.061-1.069-0.189l-13.424-4.886
		c-1.619-0.59-2.454-2.381-1.864-4.002c0.588-1.621,2.379-2.452,4.002-1.866l13.424,4.886c1.619,0.59,2.454,2.381,1.864,4.002
		C479.787,338.888,478.588,339.674,477.315,339.674z"/>
	<path style="fill:#F2F2F2;" d="M38.131,220.706c-0.18,0-0.362-0.016-0.545-0.048l-14.069-2.481c-1.698-0.3-2.831-1.919-2.532-3.616
		c0.299-1.697,1.911-2.83,3.617-2.533l14.069,2.481c1.698,0.3,2.831,1.919,2.532,3.616C40.936,219.64,39.619,220.706,38.131,220.706
		z"/>
	<path style="fill:#F2F2F2;" d="M487.942,300.02c-0.18,0-0.362-0.016-0.545-0.048l-14.068-2.481c-1.698-0.3-2.831-1.919-2.532-3.616
		s1.909-2.83,3.617-2.533l14.069,2.481c1.698,0.3,2.831,1.919,2.532,3.616C490.748,298.954,489.43,300.02,487.942,300.02z"/>
	<path style="fill:#F2F2F2;" d="M34.767,259.122H20.482c-1.724,0-3.122-1.398-3.122-3.122s1.398-3.122,3.122-3.122h14.285
		c1.724,0,3.122,1.398,3.122,3.122S36.491,259.122,34.767,259.122z"/>
	<path style="fill:#F2F2F2;" d="M491.519,259.122h-14.287c-1.724,0-3.122-1.398-3.122-3.122s1.398-3.122,3.122-3.122h14.287
		c1.724,0,3.122,1.398,3.122,3.122C494.641,257.724,493.243,259.122,491.519,259.122z"/>
	<path style="fill:#F2F2F2;" d="M24.057,300.02c-1.488,0-2.805-1.066-3.072-2.581c-0.299-1.697,0.834-3.318,2.532-3.616
		l14.069-2.481c1.704-0.297,3.319,0.834,3.617,2.533c0.299,1.697-0.834,3.318-2.532,3.616l-14.069,2.481
		C24.418,300.004,24.236,300.02,24.057,300.02z"/>
	<path style="fill:#F2F2F2;" d="M473.867,220.706c-1.488,0-2.805-1.066-3.072-2.581c-0.299-1.697,0.834-3.318,2.532-3.616
		l14.069-2.481c1.701-0.297,3.319,0.834,3.617,2.533c0.299,1.697-0.834,3.318-2.532,3.616l-14.068,2.481
		C474.229,220.69,474.047,220.706,473.867,220.706z"/>
	<path style="fill:#F2F2F2;" d="M34.684,339.674c-1.275,0-2.472-0.788-2.933-2.055c-0.59-1.621,0.246-3.412,1.866-4.002
		l13.425-4.886c1.615-0.587,3.412,0.246,4,1.866c0.59,1.621-0.246,3.412-1.866,4.002l-13.425,4.886
		C35.4,339.614,35.04,339.674,34.684,339.674z"/>
	<path style="fill:#F2F2F2;" d="M463.891,183.457c-1.275,0-2.472-0.788-2.933-2.055c-0.59-1.621,0.246-3.412,1.864-4.002
		l13.424-4.886c1.624-0.587,3.413,0.246,4.002,1.866c0.59,1.621-0.246,3.412-1.864,4.002l-13.424,4.886
		C464.605,183.396,464.246,183.457,463.891,183.457z"/>
	<path style="fill:#F2F2F2;" d="M52.038,376.881c-1.079,0-2.128-0.56-2.707-1.562c-0.861-1.493-0.351-3.402,1.143-4.264
		l12.372-7.143c1.495-0.866,3.401-0.351,4.265,1.142c0.861,1.493,0.351,3.402-1.143,4.264l-12.372,7.143
		C53.104,376.746,52.568,376.881,52.038,376.881z"/>
	<path style="fill:#F2F2F2;" d="M447.597,148.506c-1.079,0-2.128-0.56-2.707-1.562c-0.861-1.493-0.351-3.402,1.143-4.264
		l12.371-7.143c1.491-0.865,3.401-0.35,4.265,1.142c0.861,1.493,0.351,3.402-1.143,4.264l-12.371,7.143
		C448.664,148.371,448.125,148.506,447.597,148.506z"/>
	<path style="fill:#F2F2F2;" d="M75.584,410.51c-0.89,0-1.776-0.379-2.393-1.115c-1.109-1.321-0.936-3.29,0.386-4.399l10.943-9.183
		c1.319-1.107,3.289-0.936,4.398,0.385s0.936,3.29-0.386,4.399l-10.943,9.183C77.005,410.271,76.293,410.51,75.584,410.51z"/>
	<path style="fill:#F2F2F2;" d="M425.476,116.917c-0.89,0-1.776-0.379-2.393-1.115c-1.109-1.321-0.936-3.289,0.385-4.399
		l10.942-9.183c1.322-1.107,3.291-0.936,4.399,0.385c1.109,1.321,0.936,3.289-0.385,4.399l-10.942,9.183
		C426.896,116.677,426.185,116.917,425.476,116.917z"/>
	<path style="fill:#F2F2F2;" d="M104.61,439.539c-0.708,0-1.421-0.239-2.004-0.73c-1.322-1.109-1.494-3.077-0.386-4.399
		l9.183-10.943c1.11-1.321,3.08-1.492,4.398-0.385c1.322,1.109,1.494,3.077,0.386,4.399l-9.183,10.943
		C106.386,439.16,105.5,439.539,104.61,439.539z"/>
	<path style="fill:#F2F2F2;" d="M398.204,89.648c-0.708,0-1.421-0.239-2.004-0.73c-1.322-1.109-1.494-3.077-0.386-4.399
		l9.182-10.943c1.109-1.321,3.08-1.492,4.398-0.385c1.322,1.109,1.494,3.078,0.386,4.399l-9.181,10.943
		C399.981,89.269,399.095,89.648,398.204,89.648z"/>
	<path style="fill:#F2F2F2;" d="M138.238,463.087c-0.529,0-1.066-0.135-1.558-0.419c-1.494-0.862-2.004-2.771-1.143-4.264
		l7.143-12.372c0.863-1.493,2.767-2.008,4.265-1.142c1.494,0.862,2.004,2.771,1.143,4.264l-7.143,12.372
		C140.366,462.527,139.317,463.087,138.238,463.087z"/>
	<path style="fill:#F2F2F2;" d="M366.613,67.53c-0.529,0-1.066-0.135-1.558-0.419c-1.494-0.862-2.004-2.771-1.143-4.264
		l7.143-12.372c0.863-1.493,2.767-2.009,4.265-1.142c1.494,0.862,2.004,2.771,1.143,4.264l-7.143,12.372
		C368.741,66.97,367.692,67.53,366.613,67.53z"/>
	<path style="fill:#F2F2F2;" d="M175.449,480.437c-0.355,0-0.715-0.061-1.067-0.189c-1.621-0.59-2.456-2.381-1.867-4.002
		l4.887-13.424c0.59-1.622,2.382-2.456,4-1.866c1.621,0.59,2.456,2.381,1.866,4.002l-4.886,13.424
		C177.921,479.65,176.723,480.437,175.449,480.437z"/>
	<path style="fill:#F2F2F2;" d="M331.666,51.232c-0.355,0-0.715-0.061-1.067-0.189c-1.621-0.59-2.456-2.381-1.866-4.002
		l4.886-13.424c0.588-1.622,2.384-2.453,4-1.866c1.621,0.59,2.456,2.381,1.867,4.002l-4.887,13.424
		C334.14,50.445,332.941,51.232,331.666,51.232z"/>
	<path style="fill:#F2F2F2;" d="M215.106,491.063c-0.18,0-0.362-0.016-0.545-0.048c-1.697-0.3-2.831-1.918-2.532-3.616l2.481-14.068
		c0.299-1.698,1.911-2.832,3.617-2.533c1.697,0.3,2.831,1.918,2.532,3.616l-2.481,14.069
		C217.91,489.996,216.594,491.063,215.106,491.063z"/>
	<path style="fill:#F2F2F2;" d="M294.42,41.252c-0.18,0-0.362-0.016-0.545-0.048c-1.697-0.3-2.831-1.918-2.532-3.616l2.481-14.069
		c0.299-1.697,1.911-2.827,3.617-2.533c1.697,0.3,2.831,1.918,2.532,3.616l-2.481,14.069
		C297.224,40.185,295.908,41.252,294.42,41.252z"/>
	<path style="fill:#F2F2F2;" d="M238.735,61.821c-1.602,0-2.965-1.225-3.106-2.849l-3.265-37.321
		c-0.15-1.718,1.12-3.232,2.838-3.382c1.72-0.157,3.232,1.121,3.381,2.838l3.265,37.321c0.15,1.718-1.12,3.232-2.838,3.382
		C238.918,61.817,238.825,61.821,238.735,61.821z"/>
	<path style="fill:#F2F2F2;" d="M276.523,493.744c-1.602,0-2.965-1.225-3.106-2.849l-3.265-37.321
		c-0.15-1.718,1.12-3.232,2.838-3.382c1.73-0.157,3.23,1.121,3.381,2.838l3.265,37.321c0.15,1.718-1.12,3.232-2.838,3.382
		C276.706,493.739,276.613,493.744,276.523,493.744z"/>
	<path style="fill:#F2F2F2;" d="M204.738,67.817c-1.379,0-2.64-0.92-3.013-2.314l-9.697-36.187
		c-0.446-1.666,0.541-3.377,2.207-3.823c1.665-0.455,3.378,0.542,3.823,2.207l9.697,36.187c0.446,1.666-0.541,3.377-2.207,3.823
		C205.278,67.783,205.005,67.817,204.738,67.817z"/>
	<path style="fill:#F2F2F2;" d="M316.955,486.615c-1.379,0-2.64-0.92-3.013-2.314l-9.696-36.187
		c-0.446-1.666,0.541-3.377,2.207-3.823c1.671-0.452,3.376,0.542,3.823,2.207l9.696,36.187c0.446,1.666-0.541,3.377-2.207,3.823
		C317.492,486.581,317.222,486.615,316.955,486.615z"/>
	<path style="fill:#F2F2F2;" d="M172.301,79.624c-1.176,0-2.302-0.668-2.831-1.803l-15.833-33.954
		c-0.728-1.562-0.053-3.42,1.509-4.148c1.561-0.728,3.422-0.053,4.149,1.51l15.833,33.954c0.728,1.562,0.053,3.42-1.509,4.148
		C173.193,79.53,172.743,79.624,172.301,79.624z"/>
	<path style="fill:#F2F2F2;" d="M355.536,472.574c-1.176,0-2.302-0.668-2.831-1.803l-15.832-33.954
		c-0.728-1.562-0.053-3.42,1.509-4.148s3.422-0.052,4.149,1.51l15.832,33.954c0.728,1.562,0.053,3.42-1.509,4.148
		C356.427,472.48,355.978,472.574,355.536,472.574z"/>
	<path style="fill:#F2F2F2;" d="M142.404,96.885c-0.984,0-1.953-0.464-2.561-1.331l-21.489-30.689
		c-0.987-1.413-0.645-3.359,0.767-4.348c1.418-0.991,3.361-0.644,4.349,0.767l21.489,30.689c0.987,1.413,0.645,3.359-0.767,4.348
		C143.646,96.702,143.021,96.885,142.404,96.885z"/>
	<path style="fill:#F2F2F2;" d="M391.091,452.047c-0.984,0-1.953-0.464-2.561-1.331l-21.488-30.689
		c-0.987-1.413-0.645-3.359,0.767-4.348c1.418-0.991,3.361-0.644,4.349,0.767l21.487,30.689c0.987,1.413,0.645,3.359-0.767,4.348
		C392.333,451.864,391.707,452.047,391.091,452.047z"/>
	<path style="fill:#F2F2F2;" d="M115.954,119.077c-0.798,0-1.598-0.305-2.207-0.914L87.256,91.671c-1.219-1.218-1.219-3.196,0-4.415
		s3.195-1.219,4.415,0l26.491,26.491c1.219,1.218,1.219,3.196,0,4.415C117.552,118.771,116.754,119.077,115.954,119.077z"/>
	<path style="fill:#F2F2F2;" d="M422.537,425.658c-0.798,0-1.598-0.305-2.207-0.914l-26.491-26.491
		c-1.219-1.218-1.219-3.196,0-4.415s3.195-1.219,4.415,0l26.491,26.491c1.219,1.218,1.219,3.196,0,4.415
		C424.135,425.353,423.336,425.658,422.537,425.658z"/>
	<path style="fill:#F2F2F2;" d="M93.76,145.523c-0.618,0-1.242-0.183-1.788-0.565L61.284,123.47
		c-1.412-0.988-1.754-2.935-0.767-4.348c0.991-1.413,2.934-1.756,4.349-0.767l30.688,21.487c1.412,0.988,1.754,2.935,0.767,4.348
		C95.713,145.058,94.744,145.523,93.76,145.523z"/>
	<path style="fill:#F2F2F2;" d="M448.923,394.21c-0.618,0-1.242-0.183-1.788-0.565l-30.689-21.487
		c-1.412-0.988-1.754-2.935-0.767-4.348c0.991-1.411,2.933-1.756,4.349-0.767l30.689,21.488c1.412,0.988,1.754,2.935,0.767,4.348
		C450.876,393.745,449.907,394.21,448.923,394.21z"/>
	<path style="fill:#F2F2F2;" d="M76.5,175.421c-0.442,0-0.89-0.094-1.317-0.294L41.23,159.295c-1.564-0.728-2.239-2.586-1.511-4.148
		c0.728-1.562,2.587-2.237,4.148-1.51l33.954,15.832c1.564,0.728,2.239,2.586,1.511,4.148
		C78.802,174.753,77.676,175.421,76.5,175.421z"/>
	<path style="fill:#F2F2F2;" d="M469.45,358.657c-0.442,0-0.891-0.094-1.319-0.294l-33.953-15.832
		c-1.562-0.728-2.238-2.586-1.509-4.148s2.588-2.238,4.149-1.51l33.953,15.832c1.562,0.728,2.238,2.586,1.509,4.148
		C471.752,357.989,470.625,358.657,469.45,358.657z"/>
	<path style="fill:#F2F2F2;" d="M64.696,207.863c-0.266,0-0.538-0.034-0.81-0.108l-36.188-9.696
		c-1.667-0.446-2.654-2.158-2.207-3.823c0.445-1.665,2.154-2.658,3.823-2.207l36.188,9.696c1.667,0.446,2.654,2.158,2.207,3.823
		C67.335,206.942,66.073,207.863,64.696,207.863z"/>
	<path style="fill:#F2F2F2;" d="M483.494,320.079c-0.266,0-0.538-0.034-0.81-0.108l-36.188-9.697
		c-1.667-0.446-2.654-2.158-2.207-3.823c0.445-1.665,2.154-2.656,3.823-2.207l36.188,9.697c1.667,0.446,2.654,2.158,2.207,3.823
		C486.135,319.16,484.872,320.079,483.494,320.079z"/>
	<path style="fill:#F2F2F2;" d="M58.701,241.86c-0.092,0-0.183-0.004-0.276-0.013l-37.321-3.265
		c-1.717-0.15-2.987-1.663-2.837-3.382c0.149-1.718,1.668-2.993,3.382-2.838l37.321,3.265c1.717,0.15,2.987,1.663,2.837,3.382
		C61.667,240.635,60.304,241.86,58.701,241.86z"/>
	<path style="fill:#F2F2F2;" d="M490.626,279.649c-0.09,0-0.183-0.004-0.275-0.013l-37.322-3.265
		c-1.718-0.15-2.989-1.663-2.838-3.382c0.15-1.717,1.651-2.989,3.381-2.838l37.322,3.265c1.718,0.15,2.989,1.663,2.838,3.382
		C493.59,278.425,492.227,279.649,490.626,279.649z"/>
	<path style="fill:#F2F2F2;" d="M21.375,279.649c-1.602,0-2.965-1.225-3.106-2.849c-0.15-1.718,1.12-3.232,2.837-3.382l37.321-3.265
		c1.745-0.15,3.233,1.122,3.382,2.838c0.15,1.718-1.12,3.232-2.837,3.382l-37.321,3.265
		C21.558,279.645,21.465,279.649,21.375,279.649z"/>
	<path style="fill:#F2F2F2;" d="M453.298,241.86c-1.602,0-2.965-1.225-3.106-2.849c-0.15-1.718,1.12-3.232,2.838-3.382l37.322-3.265
		c1.728-0.162,3.23,1.122,3.381,2.838c0.15,1.718-1.12,3.232-2.838,3.382l-37.322,3.265
		C453.48,241.856,453.387,241.86,453.298,241.86z"/>
	<path style="fill:#F2F2F2;" d="M28.505,320.079c-1.379,0-2.64-0.919-3.013-2.314c-0.446-1.666,0.541-3.377,2.207-3.823
		l36.188-9.697c1.661-0.453,3.376,0.542,3.823,2.207c0.446,1.666-0.541,3.377-2.207,3.823l-36.188,9.697
		C29.045,320.045,28.771,320.079,28.505,320.079z"/>
	<path style="fill:#F2F2F2;" d="M447.304,207.863c-1.379,0-2.64-0.92-3.013-2.314c-0.446-1.666,0.541-3.377,2.207-3.823
		l36.188-9.696c1.664-0.451,3.376,0.542,3.823,2.207c0.446,1.666-0.541,3.377-2.207,3.823l-36.188,9.696
		C447.843,207.828,447.571,207.863,447.304,207.863z"/>
	<path style="fill:#F2F2F2;" d="M42.549,358.657c-1.176,0-2.302-0.668-2.831-1.804c-0.728-1.562-0.053-3.42,1.511-4.148
		l33.954-15.832c1.555-0.728,3.419-0.052,4.148,1.51c0.729,1.562,0.053,3.42-1.511,4.148l-33.954,15.832
		C43.441,358.562,42.991,358.657,42.549,358.657z"/>
	<path style="fill:#F2F2F2;" d="M435.5,175.421c-1.176,0-2.302-0.668-2.831-1.803c-0.728-1.562-0.053-3.42,1.509-4.148
		l33.953-15.832c1.562-0.727,3.421-0.052,4.149,1.51s0.053,3.42-1.509,4.148l-33.953,15.832
		C436.392,175.327,435.943,175.421,435.5,175.421z"/>
	<path style="fill:#F2F2F2;" d="M63.078,394.21c-0.984,0-1.953-0.464-2.561-1.331c-0.987-1.413-0.645-3.359,0.767-4.348
		l30.688-21.488c1.418-0.991,3.361-0.644,4.349,0.767c0.987,1.413,0.645,3.359-0.767,4.348l-30.688,21.487
		C64.321,394.026,63.696,394.21,63.078,394.21z"/>
	<path style="fill:#F2F2F2;" d="M418.239,145.523c-0.984,0-1.953-0.464-2.561-1.331c-0.987-1.413-0.645-3.359,0.767-4.348
		l30.689-21.487c1.418-0.991,3.359-0.644,4.349,0.767c0.987,1.413,0.645,3.359-0.767,4.348l-30.689,21.487
		C419.482,145.339,418.857,145.523,418.239,145.523z"/>
	<path style="fill:#F2F2F2;" d="M89.464,425.658c-0.798,0-1.598-0.305-2.207-0.914c-1.219-1.218-1.219-3.196,0-4.415l26.491-26.491
		c1.219-1.219,3.195-1.219,4.415,0c1.219,1.218,1.219,3.196,0,4.415l-26.491,26.491C91.062,425.353,90.262,425.658,89.464,425.658z"
		/>
	<path style="fill:#F2F2F2;" d="M396.047,119.077c-0.798,0-1.598-0.305-2.207-0.914c-1.219-1.218-1.219-3.196,0-4.415l26.491-26.491
		c1.219-1.219,3.195-1.219,4.415,0c1.219,1.218,1.219,3.196,0,4.415l-26.491,26.491
		C397.643,118.771,396.845,119.077,396.047,119.077z"/>
	<path style="fill:#F2F2F2;" d="M120.909,452.047c-0.618,0-1.242-0.183-1.788-0.565c-1.412-0.988-1.754-2.935-0.767-4.348
		l21.489-30.689c0.991-1.411,2.934-1.756,4.349-0.767c1.412,0.988,1.754,2.935,0.767,4.348l-21.489,30.689
		C122.861,451.583,121.894,452.047,120.909,452.047z"/>
	<path style="fill:#F2F2F2;" d="M369.596,96.885c-0.618,0-1.242-0.183-1.788-0.565c-1.412-0.988-1.754-2.935-0.767-4.348
		l21.488-30.689c0.99-1.413,2.936-1.756,4.349-0.767c1.412,0.988,1.754,2.935,0.767,4.348l-21.487,30.689
		C371.549,96.421,370.581,96.885,369.596,96.885z"/>
	<path style="fill:#F2F2F2;" d="M156.464,472.574c-0.442,0-0.891-0.094-1.319-0.294c-1.562-0.728-2.238-2.586-1.509-4.148
		l15.833-33.954c0.727-1.562,2.588-2.238,4.149-1.51c1.562,0.728,2.238,2.586,1.509,4.148l-15.833,33.954
		C158.766,471.906,157.64,472.574,156.464,472.574z"/>
	<path style="fill:#F2F2F2;" d="M339.701,79.624c-0.442,0-0.891-0.094-1.319-0.294c-1.562-0.728-2.238-2.586-1.509-4.148
		l15.832-33.954c0.727-1.563,2.588-2.238,4.149-1.51c1.562,0.728,2.238,2.586,1.509,4.148L342.531,77.82
		C342.001,78.957,340.875,79.624,339.701,79.624z"/>
	<path style="fill:#F2F2F2;" d="M195.045,486.615c-0.266,0-0.539-0.034-0.81-0.108c-1.667-0.446-2.654-2.158-2.207-3.823
		l9.697-36.187c0.446-1.663,2.16-2.658,3.823-2.207c1.667,0.446,2.654,2.158,2.207,3.823l-9.697,36.187
		C197.685,485.696,196.423,486.615,195.045,486.615z"/>
	<path style="fill:#F2F2F2;" d="M307.263,67.817c-0.266,0-0.538-0.034-0.81-0.108c-1.667-0.446-2.654-2.158-2.207-3.823
		l9.696-36.187c0.446-1.665,2.151-2.661,3.823-2.207c1.667,0.446,2.654,2.158,2.207,3.823l-9.696,36.187
		C309.903,66.896,308.641,67.817,307.263,67.817z"/>
	<path style="fill:#F2F2F2;" d="M235.476,493.744c-0.09,0-0.183-0.004-0.275-0.013c-1.718-0.15-2.989-1.664-2.838-3.382
		l3.265-37.321c0.149-1.717,1.663-2.995,3.381-2.838c1.718,0.15,2.989,1.663,2.838,3.382l-3.265,37.321
		C238.44,492.519,237.078,493.744,235.476,493.744z"/>
	<path style="fill:#F2F2F2;" d="M273.264,61.821c-0.09,0-0.183-0.004-0.275-0.013c-1.718-0.15-2.989-1.663-2.838-3.382l3.265-37.321
		c0.149-1.717,1.647-2.996,3.381-2.838c1.718,0.15,2.989,1.663,2.838,3.382L276.37,58.97
		C276.229,60.597,274.867,61.821,273.264,61.821z"/>
	<polygon style="fill:#F2F2F2;" points="286.928,286.928 424.877,87.123 225.072,225.072 87.123,424.877 	"/>
</g>
<polygon style="fill:#CCCCCC;" points="286.928,286.928 424.877,87.123 87.123,424.877 "/>
<polygon style="fill:#FF525D;" points="286.928,286.928 424.877,87.123 225.072,225.072 "/>
<polygon style="fill:#EF4152;" points="286.928,286.928 424.877,87.123 256,256 "/>
<g>
</g>
<g>
</g>
<g>
</g>
<g>
</g>
<g>
</g>
<g>
</g>
<g>
</g>
<g>
</g>
<g>
</g>
<g>
</g>
<g>
</g>
<g>
</g>
<g>
</g>
<g>
</g>
<g>
</g>
</svg>
